<svg width="48" height="48" viewBox="0 0 48 48" fill="none" xmlns="http://www.w3.org/2000/svg">
<path d="M33.7926 21.1571L30.8001 21.9801C26.4031 22.9694 22.9694 26.4031 21.9801 30.8001L21.1571 33.7926C20.8338 34.9684 19.1663 34.9684 18.843 33.7926L18.0201 30.8001C17.0307 26.4031 13.597 22.9694 9.20005 21.9801L6.2075 21.1571C5.03175 20.8338 5.03174 19.1663 6.20749 18.843L9.20005 18.0201C13.597 17.0307 17.0307 13.597 18.0201 9.20005L18.843 6.2075C19.1663 5.03175 20.8338 5.03175 21.1571 6.20749L21.9801 9.20005C22.9694 13.597 26.4031 17.0307 30.8001 18.0201L33.7926 18.843C34.9684 19.1663 34.9684 20.8338 33.7926 21.1571Z" fill="url(#paint0_radial_247_3454)"/>
<path d="M44.0363 38.54L42.7998 38.8801C40.8456 39.3198 39.3195 40.8459 38.8798 42.8001L38.5398 44.0366C38.3889 44.5853 37.6107 44.5853 37.4598 44.0366L37.1198 42.8001C36.6801 40.8459 35.154 39.3198 33.1998 38.8801L31.9633 38.54C31.4146 38.3891 31.4146 37.611 31.9633 37.4601L33.1998 37.1201C35.154 36.6804 36.6801 35.1543 37.1198 33.2001L37.4598 31.9635C37.6107 31.4149 38.3889 31.4149 38.5398 31.9635L38.8798 33.2001C39.3195 35.1543 40.8456 36.6804 42.7998 37.1201L44.0363 37.4601C44.585 37.611 44.585 38.3891 44.0363 38.54Z" fill="url(#paint1_radial_247_3454)"/>
<defs>
<radialGradient id="paint0_radial_247_3454" cx="0" cy="0" r="1" gradientUnits="userSpaceOnUse" gradientTransform="translate(18 26) rotate(19.0256) scale(30.6757 30.6755)">
<stop offset="0.225" stop-color="#FFC927"/>
<stop offset="0.53" stop-color="#FC9A24"/>
<stop offset="1" stop-color="#FF7EC3"/>
</radialGradient>
<radialGradient id="paint1_radial_247_3454" cx="0" cy="0" r="1" gradientUnits="userSpaceOnUse" gradientTransform="translate(18 26) rotate(19.0256) scale(30.6757 30.6755)">
<stop offset="0.225" stop-color="#FFC927"/>
<stop offset="0.53" stop-color="#FC9A24"/>
<stop offset="1" stop-color="#FF7EC3"/>
</radialGradient>
</defs>
</svg>
